<?xml version="1.0" encoding="UTF-8"?>
<svg id="Capa_1" xmlns="http://www.w3.org/2000/svg" version="1.1" viewBox="0 0 120 120">
  <!-- Generator: Adobe Illustrator 29.0.1, SVG Export Plug-In . SVG Version: 2.1.0 Build 192)  -->
  <defs>
    <style>
      .st0 {
        fill: #fff;
      }

      .st1 {
        fill: #010101;
      }
    </style>
  </defs>
  <path class="st1" d="M99.65,67.72c3.9,5,5.85,10.72,5.85,17.15,0,9.27-3.24,16.62-9.72,22.05-6.48,5.43-15.52,8.14-27.11,8.14h-35.86c-8.74,0-15.82-7.08-15.82-15.82V19.93c0-8.74,7.08-15.82,15.82-15.82h34.12c11.28,0,20.1,2.58,26.47,7.74,6.37,5.16,9.56,12.17,9.56,21.02,0,6.53-1.71,11.96-5.14,16.28-3.42,4.32-7.98,7.32-13.67,9.01,6.43,1.37,11.59,4.56,15.49,9.56"/>
  <path class="st0" d="M78.45,63.24c2.18,2.8,3.27,6,3.27,9.6,0,5.19-1.81,9.31-5.44,12.34-3.63,3.04-8.69,4.56-15.17,4.56h-20.07c-4.89,0-8.86-3.96-8.86-8.86v-44.4c0-4.89,3.96-8.86,8.86-8.86h19.1c6.31,0,11.25,1.45,14.82,4.34,3.57,2.89,5.35,6.81,5.35,11.77,0,3.66-.96,6.69-2.88,9.11-1.92,2.42-4.47,4.1-7.65,5.04,3.6.77,6.49,2.55,8.67,5.35"/>
</svg>