<?xml version="1.0" encoding="UTF-8"?>
<svg id="Capa_1" xmlns="http://www.w3.org/2000/svg" version="1.1" viewBox="0 0 120 120">
  <!-- Generator: Adobe Illustrator 29.0.1, SVG Export Plug-In . SVG Version: 2.1.0 Build 192)  -->
  <defs>
    <style>
      .st0 {
        fill: #010101;
      }
    </style>
  </defs>
  <path class="st0" d="M99.7,67.7c3.9,5,5.8,10.7,5.8,17.2,0,9.3-3.2,16.6-9.7,22-6.5,5.4-15.5,8.1-27.1,8.1h-35.9c-8.7,0-15.8-7.1-15.8-15.8V19.9c0-8.7,7.1-15.8,15.8-15.8h34.1c11.3,0,20.1,2.6,26.5,7.7s9.6,12.2,9.6,21-1.7,12-5.1,16.3c-3.4,4.3-8,7.3-13.7,9,6.4,1.4,11.6,4.6,15.5,9.6"/>
</svg>